<svg width="24" height="24" viewBox="0 0 24 24" fill="none" xmlns="http://www.w3.org/2000/svg">
<g id="boxing">
<g id="Group">
<path d="M11 6C12.6569 6 14 4.65685 14 3C14 1.34315 12.6569 0 11 0C9.34315 0 8 1.34315 8 3C8 4.65685 9.34315 6 11 6Z" fill="#B9272D"/>
<path d="M7.719 18.01L7.187 19.34L3.613 21.723L4.723 23.387L8.555 20.832C8.72345 20.7197 8.85387 20.559 8.929 20.371L9.523 18.886C8.86283 18.7351 8.24583 18.4355 7.719 18.01Z" fill="#B9272D"/>
<path d="M13 9H21V7H10.5C9.83696 7 9.20107 7.26339 8.73223 7.73223C8.26339 8.20107 8 8.83696 8 9.5V14.5C8.00059 14.9981 8.14998 15.4847 8.429 15.8974C8.70802 16.31 9.10394 16.6299 9.566 16.816L14 18.667V23H16V18C15.9999 17.8025 15.9414 17.6095 15.8318 17.4452C15.7221 17.281 15.5663 17.1528 15.384 17.077L12.778 15.9C12.9221 15.6218 12.9982 15.3133 13 15V9Z" fill="#B9272D"/>
</g>
</g>
</svg>
