<svg width="32" height="32" viewBox="0 0 32 32" fill="none" xmlns="http://www.w3.org/2000/svg">
<g id="info">
<g clip-path="url(#clip0_463_679)">
<path d="M16 0C7.2 0 0 7.2 0 16C0 24.8 7.2 32 16 32C24.8 32 32 24.8 32 16C32 7.2 24.8 0 16 0ZM18 23C18 23.552 17.552 24 17 24H15C14.448 24 14 23.552 14 23V15C14 14.448 14.448 14 15 14H17C17.552 14 18 14.448 18 15V23ZM16 12C14.896 12 14 11.104 14 10C14 8.896 14.896 8 16 8C17.104 8 18 8.896 18 10C18 11.104 17.104 12 16 12Z" fill="#B9272D"/>
</g>
<defs>
<rect width="32" height="32" fill="white"/>
</clipPath>
</defs>
</svg>
